<svg width="121" height="122" viewBox="0 0 121 122" fill="none" xmlns="http://www.w3.org/2000/svg">
<path opacity="0.03" d="M70.7118 68.4674C77.0701 69.8251 83.4283 70.9889 89.7866 71.9587C99.9984 73.5103 110.403 74.8681 121 75.062C111.366 70.601 101.54 67.3037 91.7134 64.2003C85.5478 62.2607 79.3822 60.5151 73.2166 58.9634C78.6115 55.4722 83.8137 51.787 89.0159 47.9078C97.301 41.7011 105.586 35.3005 113.293 27.9301C103.467 31.6153 94.0255 36.2703 84.7771 41.1192C78.9968 44.2226 73.4092 47.3259 68.0143 50.6232C69.3631 44.2226 70.5191 37.8219 71.4825 31.4213C73.0239 21.1415 74.3726 10.6677 74.5653 0C70.1338 9.69793 66.8583 19.5898 63.7755 29.4817C61.8487 35.6884 60.1147 41.8951 58.5733 48.1017C55.1051 42.6709 51.4443 37.434 47.5908 32.1971C41.4252 23.8569 35.0669 15.5167 27.7452 7.75835C31.4061 17.6502 36.0303 27.1542 40.8471 36.4642C43.9299 42.283 47.0127 47.9078 50.2882 53.3386C43.9299 51.9809 37.5717 50.8172 31.2134 49.8474C21.0016 48.2957 10.5971 46.938 0 46.744C9.63376 51.2051 19.4602 54.5024 29.2866 57.7997C35.4522 59.7393 41.6178 61.4849 47.7834 63.0366C42.3885 66.5278 37.1863 70.213 31.9841 74.0922C23.699 80.2989 15.414 86.6995 7.70701 94.07C17.5334 90.3847 26.9745 85.7297 36.2229 80.8808C42.0032 77.7774 47.5908 74.6741 52.9857 71.3768C51.6369 77.7774 50.4809 84.1781 49.5175 90.5787C47.9761 100.859 46.6274 111.332 46.4347 122C50.8662 112.302 54.1417 102.41 57.4172 92.5183C59.344 86.3116 61.078 80.1049 62.6194 73.8983C66.0876 79.3291 69.7484 84.566 73.6019 89.8029C79.7675 98.1431 86.1258 106.483 93.4475 114.242C89.7866 104.35 85.1624 94.8458 80.3455 85.5358C77.2627 79.717 73.9873 74.0922 70.7118 68.4674Z" fill="#DA592F"/>
</svg>
