<svg xmlns="http://www.w3.org/2000/svg" xmlns:xlink="http://www.w3.org/1999/xlink" viewBox="0 0 99 98" width="99" height="98" preserveAspectRatio="xMidYMid meet" style="width: 100%; height: 100%; transform: translate3d(0px, 0px, 0px); content-visibility: visible;"><defs><clipPath id="__lottie_element_5"><rect width="99" height="98" x="0" y="0"/></clipPath></defs><g clip-path="url(#__lottie_element_5)"><g transform="matrix(0.9804294109344482,0,0,1.0195705890655518,0,0)" opacity="1" style="display: block;"><g opacity="1" transform="matrix(1,0,0,1,0,0)"><g opacity="1" transform="matrix(1,0,0,1,0,0)"><path fill="rgb(216,89,45)" fill-opacity="1" d=" M21.450000762939453,24.760000228881836 C21.450000762939453,24.760000228881836 23.610000610351562,22.670000076293945 23.610000610351562,22.670000076293945 C23.610000610351562,22.670000076293945 47.88999938964844,47.72999954223633 47.88999938964844,47.72999954223633 C47.88999938964844,47.72999954223633 45.72999954223633,49.81999969482422 45.72999954223633,49.81999969482422 C45.72999954223633,49.81999969482422 21.450000762939453,24.760000228881836 21.450000762939453,24.760000228881836z"/></g><g opacity="1" transform="matrix(1,0,0,1,0,0)"><path fill="rgb(216,89,45)" fill-opacity="1" d=" M13.229999542236328,59.20000076293945 C13.229999542236328,59.20000076293945 13.9399995803833,56.279998779296875 13.9399995803833,56.279998779296875 C13.9399995803833,56.279998779296875 36.52000045776367,61.790000915527344 36.52000045776367,61.790000915527344 C36.52000045776367,61.790000915527344 35.810001373291016,64.70999908447266 35.810001373291016,64.70999908447266 C35.810001373291016,64.70999908447266 13.229999542236328,59.20000076293945 13.229999542236328,59.20000076293945z"/></g><g opacity="1" transform="matrix(1,0,0,1,0,0)"><path fill="rgb(216,89,45)" fill-opacity="1" d=" M56.27000045776367,12.84000015258789 C56.27000045776367,12.84000015258789 59.27000045776367,12.649999618530273 59.27000045776367,12.649999618530273 C59.27000045776367,12.649999618530273 60.68000030517578,35.86000061035156 60.68000030517578,35.86000061035156 C60.68000030517578,35.86000061035156 57.68000030517578,36.040000915527344 57.68000030517578,36.040000915527344 C57.68000030517578,36.040000915527344 56.27000045776367,12.84000015258789 56.27000045776367,12.84000015258789z"/></g></g></g></g></svg>